<?xml version="1.0" standalone="no"?>
<!DOCTYPE svg PUBLIC "-//W3C//DTD SVG 20010904//EN"
 "http://www.w3.org/TR/2001/REC-SVG-20010904/DTD/svg10.dtd">
<svg version="1.0" xmlns="http://www.w3.org/2000/svg"
 width="1280.000000pt" height="529.000000pt" viewBox="0 0 1280.000000 529.000000"
 preserveAspectRatio="xMidYMid meet">
<metadata>
Created by potrace 1.14, written by Peter Selinger 2001-2017
</metadata>
<g transform="translate(0.000000,529.000000) scale(0.100000,-0.100000)"
fill="#000000" stroke="none">
<path d="M9960 5260 c-437 -22 -803 -74 -1665 -236 -1084 -203 -1397 -240
-1980 -231 -450 7 -643 32 -1290 167 -432 90 -507 105 -650 129 -265 45 -907
123 -1245 153 -221 19 -816 16 -1015 -5 -342 -37 -631 -86 -1275 -217 -217
-45 -491 -99 -609 -120 -118 -22 -216 -41 -217 -43 -2 -2 -6 -99 -10 -217 -7
-242 6 -359 51 -453 14 -31 69 -101 132 -170 244 -265 284 -327 333 -508 109
-395 195 -665 308 -959 130 -340 283 -670 358 -776 257 -360 822 -612 1564
-696 72 -8 228 -12 415 -12 517 2 848 55 1160 189 516 222 912 629 1294 1333
93 172 131 267 197 494 83 292 111 373 169 493 64 132 106 184 177 216 51 23
61 24 266 22 256 -2 295 -11 371 -79 120 -108 184 -230 296 -568 167 -504 330
-837 560 -1144 92 -123 257 -298 362 -384 554 -453 1471 -661 2303 -522 689
115 1242 461 1537 961 116 198 216 471 332 913 199 756 275 919 495 1064 58
38 87 64 96 86 13 32 14 49 13 325 0 83 0 182 1 222 0 58 -3 77 -20 100 -31
41 -90 71 -169 83 -165 27 -338 65 -605 135 -370 97 -454 113 -885 174 -580
82 -815 98 -1155 81z m-6371 -280 c261 -13 423 -32 641 -76 865 -173 1309
-446 1410 -866 22 -93 27 -277 10 -388 -42 -270 -153 -575 -367 -1005 -148
-296 -260 -461 -437 -644 -377 -387 -864 -606 -1476 -661 -386 -36 -984 32
-1286 146 -365 137 -646 396 -815 751 -132 276 -291 849 -345 1243 -26 184
-26 586 -1 693 31 130 87 228 192 332 200 200 494 312 1005 384 300 42 682 78
965 90 264 12 281 12 504 1z m6191 0 c522 -23 1096 -91 1385 -165 447 -115
694 -298 789 -585 73 -221 51 -669 -55 -1142 -56 -250 -174 -628 -254 -809
-167 -384 -473 -667 -866 -804 -114 -40 -373 -95 -569 -120 -171 -23 -512 -31
-680 -16 -700 62 -1252 346 -1637 841 -131 169 -309 495 -452 830 -73 171
-155 422 -183 560 -30 150 -32 368 -4 475 106 404 507 660 1314 839 252 56
447 82 714 95 230 12 245 12 498 1z"/>
<path d="M3983 706 c-117 -55 -148 -202 -63 -300 26 -29 60 -48 202 -109 66
-29 94 -69 84 -122 -10 -53 -38 -70 -116 -70 -58 0 -72 4 -94 24 -14 13 -29
39 -32 58 -6 33 -7 33 -60 33 -59 0 -60 -2 -43 -63 13 -48 60 -102 113 -130
32 -16 59 -21 121 -21 70 -1 86 2 128 27 60 35 87 86 87 162 0 101 -56 170
-177 215 -82 31 -131 58 -143 79 -19 37 -12 81 19 112 25 24 38 29 79 29 61 0
97 -25 113 -81 12 -38 13 -39 61 -39 46 0 48 1 48 28 0 43 -45 124 -83 150
-72 49 -163 55 -244 18z"/>
<path d="M6127 716 c-93 -33 -151 -123 -168 -259 -18 -143 4 -276 59 -359 69
-105 237 -128 337 -46 41 34 85 117 85 161 0 26 -2 27 -50 27 -46 0 -50 -2
-56 -27 -19 -78 -61 -113 -135 -113 -35 0 -48 6 -79 37 -45 46 -60 103 -60
230 0 109 22 192 62 230 26 24 37 28 90 28 53 0 62 -3 84 -28 13 -15 28 -45
34 -67 11 -40 11 -40 62 -40 l51 0 -7 41 c-24 150 -167 235 -309 185z"/>
<path d="M8257 716 c-93 -33 -151 -123 -168 -259 -18 -143 4 -276 59 -359 69
-105 237 -128 337 -46 41 34 85 117 85 161 0 26 -2 27 -50 27 -46 0 -50 -2
-56 -27 -19 -78 -61 -113 -135 -113 -35 0 -48 6 -79 37 -45 46 -60 103 -60
230 0 109 22 192 62 230 26 24 37 28 90 28 53 0 62 -3 84 -28 13 -15 28 -45
34 -67 11 -40 11 -40 62 -40 l51 0 -7 41 c-24 150 -167 235 -309 185z"/>
<path d="M3160 366 l0 -356 55 0 55 0 0 140 0 140 59 0 59 0 63 -140 63 -140
58 0 c68 0 70 -18 -22 175 -33 71 -57 131 -51 133 87 29 131 194 80 299 -15
30 -35 52 -67 71 -45 26 -54 27 -199 30 l-153 4 0 -356z m293 234 c68 -54 53
-182 -25 -209 -17 -6 -60 -11 -94 -11 l-64 0 0 120 0 120 79 0 c63 0 83 -4
104 -20z"/>
<path d="M4580 365 l0 -355 55 0 55 0 0 135 0 135 102 0 c123 0 174 20 216 83
24 37 27 50 27 132 0 84 -2 95 -28 134 -20 29 -44 50 -80 67 -48 22 -65 24
-199 24 l-148 0 0 -355z m307 235 c49 -29 65 -101 38 -166 -19 -46 -63 -64
-160 -64 l-75 0 0 125 0 125 83 0 c64 0 89 -4 114 -20z"/>
<path d="M5310 365 l0 -355 205 0 205 0 0 50 0 50 -150 0 -150 0 0 110 0 110
125 0 125 0 0 45 0 45 -125 0 -125 0 0 100 0 100 145 0 145 0 0 50 0 50 -200
0 -200 0 0 -355z"/>
<path d="M6660 670 l0 -50 95 0 95 0 0 -305 0 -305 55 0 55 0 0 305 0 305 95
0 95 0 0 50 0 50 -245 0 -245 0 0 -50z"/>
<path d="M7422 388 c-60 -183 -112 -343 -116 -355 -7 -22 -5 -23 48 -23 l55 0
26 85 26 85 118 0 119 0 26 -85 27 -85 55 0 c42 0 55 3 51 13 -3 7 -55 167
-116 355 l-112 342 -49 0 -49 0 -109 -332z m206 25 c21 -73 37 -135 34 -138
-3 -3 -43 -5 -90 -5 -63 0 -83 3 -80 13 3 6 22 71 44 144 21 72 42 129 45 125
4 -4 25 -66 47 -139z"/>
<path d="M8840 365 l0 -355 195 0 195 0 0 50 0 50 -140 0 -140 0 0 305 0 305
-55 0 -55 0 0 -355z"/>
<path d="M9490 365 l0 -355 205 0 205 0 0 50 0 50 -150 0 -150 0 0 110 0 110
125 0 125 0 0 45 0 45 -125 0 -125 0 0 100 0 100 145 0 145 0 0 50 0 50 -200
0 -200 0 0 -355z"/>
</g>
</svg>
